<?xml version="1.0" encoding="iso-8859-1"?>
<!-- Generator: Adobe Illustrator 19.0.0, SVG Export Plug-In . SVG Version: 6.00 Build 0)  -->
<svg version="1.1" id="Layer_1" xmlns="http://www.w3.org/2000/svg" xmlns:xlink="http://www.w3.org/1999/xlink" x="0px" y="0px"
	 viewBox="0 0 512 512" style="enable-background:new 0 0 512 512;" xml:space="preserve">
<path style="fill:#F5DC48;" d="M511.722,139.458l-57.105,275.628H57.385L0.28,139.458c-2.389-13.309,10.92-24.116,23.547-18.77
	c24.229,10.352,50.735,14.219,76.897,11.262c10.352-1.251,19.907,7.508,18.883,18.428c-1.706,20.021,13.992,37.198,34.013,37.198
	c18.77,0,34.126-15.357,34.126-34.126c0-10.01-4.323-19.452-11.944-25.936c-8.19-7.053-7.963-19.793,0.569-26.505
	c18.656-14.447,23.775-22.978,66.205-77.468c3.185-4.095,8.304-6.257,13.423-6.257s10.238,2.161,13.423,6.257
	c42.203,54.261,47.436,62.906,66.205,77.468c8.532,6.712,8.759,19.452,0.569,26.505c-7.622,6.484-11.944,15.926-11.944,25.936
	c0,18.77,15.357,34.126,34.126,34.126c20.021,0,35.719-17.177,34.013-37.198c-1.024-10.92,8.418-19.793,18.883-18.428
	c26.164,2.958,52.668-0.91,76.897-11.262C500.688,115.342,514.111,126.149,511.722,139.458z"/>
<path style="fill:#EDBA43;" d="M511.722,139.458l-57.105,275.628H256.001v-397.8c5.119,0,10.238,2.161,13.423,6.257
	c42.203,54.261,47.436,62.906,66.205,77.468c8.532,6.712,8.759,19.452,0.569,26.505c-7.622,6.484-11.944,15.926-11.944,25.936
	c0,18.77,15.357,34.126,34.126,34.126c20.021,0,35.719-17.177,34.013-37.198c-1.024-10.92,8.418-19.793,18.883-18.428
	c26.164,2.958,52.668-0.91,76.897-11.262C500.688,115.342,514.111,126.149,511.722,139.458z"/>
<g>
	<path style="fill:#D55C4C;" d="M256.001,358.21c-37.637,0-68.253-30.616-68.253-68.253s30.616-68.253,68.253-68.253
		c37.637,0,68.253,30.616,68.253,68.253S293.638,358.21,256.001,358.21z"/>
	<path style="fill:#D55C4C;" d="M51.242,358.21c-28.227,0-51.19-22.963-51.19-51.19s22.963-51.19,51.19-51.19
		s51.19,22.963,51.19,51.19S79.471,358.21,51.242,358.21z"/>
</g>
<g>
	<path style="fill:#C55145;" d="M460.76,358.21c-28.227,0-51.19-22.963-51.19-51.19s22.963-51.19,51.19-51.19
		c28.227,0,51.19,22.963,51.19,51.19S488.988,358.21,460.76,358.21z"/>
	<path style="fill:#C55145;" d="M324.254,289.957c0-37.637-30.616-68.253-68.253-68.253V358.21
		C293.638,358.21,324.254,327.594,324.254,289.957z"/>
</g>
<path style="fill:#E9B147;" d="M426.633,494.716H85.369c-28.271,0-51.19-22.918-51.19-51.19l0,0c0-28.271,22.918-51.19,51.19-51.19
	h341.264c28.271,0,51.19,22.918,51.19,51.19l0,0C477.823,471.796,454.905,494.716,426.633,494.716z"/>
<path style="fill:#DF9642;" d="M426.633,392.336H256.001v102.379h170.632c28.271,0,51.19-22.918,51.19-51.19
	C477.823,415.254,454.905,392.336,426.633,392.336z"/>
<g>
</g>
<g>
</g>
<g>
</g>
<g>
</g>
<g>
</g>
<g>
</g>
<g>
</g>
<g>
</g>
<g>
</g>
<g>
</g>
<g>
</g>
<g>
</g>
<g>
</g>
<g>
</g>
<g>
</g>
</svg>
